<?xml version="1.0" encoding="UTF-8"?>
<svg width="29px" height="29px" viewBox="0 0 29 29" version="1.1" xmlns="http://www.w3.org/2000/svg" xmlns:xlink="http://www.w3.org/1999/xlink">
    <!-- Generator: Sketch 43 (38999) - http://www.bohemiancoding.com/sketch -->
    <title>magnifying-glass</title>
    <desc>Created with Sketch.</desc>
    <defs></defs>
    <g id="Page-1" stroke="none" stroke-width="1" fill="none" fill-rule="evenodd" opacity="0.0830502717">
        <g id="Book-List" transform="translate(-193.000000, -115.000000)" fill-rule="nonzero" fill="#000000">
            <g id="magnifying-glass" transform="translate(193.000000, 115.000000)">
                <g id="Magnifying_glass">
                    <path d="M28.1753125,24.4089375 L21.325875,17.5595 C22.359,15.8648125 22.9535,13.8710625 22.9535,11.741375 C22.9535,5.5480625 17.5866875,0.1830625 11.393375,0.1830625 C5.2000625,0.18125 0.18125,5.201875 0.18125,11.3951875 C0.18125,17.5866875 5.5480625,22.9535 11.7395625,22.9535 C13.800375,22.9535 15.7270625,22.3934375 17.3855,21.42375 L24.2711875,28.3130625 C24.9454375,28.9855 26.038375,28.9855 26.7108125,28.3130625 L28.42,26.603875 C29.0924375,25.9314375 28.84775,25.081375 28.1753125,24.4089375 Z M3.63225,11.3951875 C3.63225,7.1068125 7.1068125,3.63225 11.393375,3.63225 C15.68175,3.63225 19.5025,7.4511875 19.5025,11.741375 C19.5025,16.0279375 16.026125,19.5043125 11.7395625,19.5043125 C7.4511875,19.5025 3.63225,15.68175 3.63225,11.3951875 Z" id="Shape"></path>
                </g>
            </g>
        </g>
    </g>
</svg>